<?xml version="1.0" encoding="UTF-8" standalone="no"?>
<!-- Created with Inkscape (http://www.inkscape.org/) -->

<svg
   version="1.1"
   id="svg1"
   xml:space="preserve"
   width="70"
   height="70"
   xmlns:inkscape="http://www.inkscape.org/namespaces/inkscape"
   xmlns:sodipodi="http://sodipodi.sourceforge.net/DTD/sodipodi-0.dtd"
   xmlns="http://www.w3.org/2000/svg"
   xmlns:svg="http://www.w3.org/2000/svg"><defs
     id="defs1" /><sodipodi:namedview
     id="namedview1"
     pagecolor="#ffffff"
     bordercolor="#000000"
     borderopacity="0.25"
     inkscape:showpageshadow="2"
     inkscape:pageopacity="0.0"
     inkscape:pagecheckerboard="0"
     inkscape:deskcolor="#d1d1d1" /><inkscape:clipboard
     style="font-variation-settings:normal;opacity:1;vector-effect:none;fill:#1e1e2e;fill-opacity:1;stroke-width:0.999987;stroke-linecap:butt;stroke-linejoin:miter;stroke-miterlimit:4;stroke-dasharray:none;stroke-dashoffset:0;stroke-opacity:1;-inkscape-stroke:none;stop-color:#000000;stop-opacity:1"
     min="95,14.999953"
     max="165,84.999953"
     geom-min="95,14.999953"
     geom-max="165,84.999953" /><g
     id="g1"
     transform="translate(-95,-1113.5197)"><g
       id="hover-center"><circle
         style="fill:#a6e3a1;fill-opacity:1;fill-rule:evenodd"
         id="circle57914"
         cx="130"
         cy="1148.5197"
         r="35" /><path
         id="path67593"
         style="fill:#1e1e2e;fill-opacity:1;stroke-width:0.999987"
         d="m 148.79651,1167.7225 c -0.61929,0.6187 -2.32037,0.8619 -3.13342,0.7827 h -9.79197 c -1.69381,-0.1591 -2.74175,-0.4786 -2.74175,-5.0875 v 2.7394 c 0,-0.7826 0.0275,-4.3047 2.74175,-4.3047 h 7.83358 v -6.6528 c 0.0503,-1.6961 1.56671,-3.522 3.13342,-3.522 1.69849,0 3.17916,1.8255 3.13343,3.522 v 10.1749 c -0.0212,0.8156 -0.39168,1.5653 -1.17504,2.348 z"
         sodipodi:nodetypes="scccccccsccs" /><path
         id="path67595"
         style="fill:#1e1e2e;fill-opacity:1;stroke-width:0.999995"
         d="m 111.14748,1167.7225 c 0.61925,0.6187 2.32022,0.8619 3.13322,0.7827 h 9.79132 c 1.6937,-0.1592 2.74157,-0.4787 2.74157,-5.0875 v 2.7394 c 0,-0.7827 -0.0275,-4.3047 -2.74157,-4.3047 h -7.83306 v -6.6528 c -0.0503,-1.6961 -1.56661,-3.522 -3.13322,-3.522 -1.69838,0 -3.17895,1.8255 -3.13322,3.522 v 10.1748 c 0.0212,0.8156 0.39165,1.5654 1.17496,2.3481 z"
         sodipodi:nodetypes="scccccccsccs" /><path
         id="path67597"
         style="fill:#1e1e2e;fill-opacity:1;stroke-width:0.999991"
         d="m 148.79548,1129.3169 c -0.61925,-0.6187 -2.32022,-0.8619 -3.13322,-0.7827 h -9.79132 c -1.69371,0.1591 -2.74157,0.4786 -2.74157,5.0874 v -2.7393 c 0,0.7826 0.0275,4.3047 2.74157,4.3047 h 7.83306 v 6.6528 c 0.0503,1.6961 1.56661,3.522 3.13322,3.522 1.69837,0 3.17895,-1.8255 3.13322,-3.522 v -10.1749 c -0.0212,-0.8156 -0.39165,-1.5653 -1.17496,-2.348 z"
         sodipodi:nodetypes="scccccccsccs" /><path
         id="path67599"
         style="fill:#1e1e2e;fill-opacity:1;stroke-width:0.999987"
         d="m 111.14748,1129.3169 c 0.61925,-0.6187 2.32022,-0.8619 3.13322,-0.7827 h 9.79132 c 1.6937,0.1591 2.74157,0.4787 2.74157,5.0875 v -2.7394 c 0,0.7827 -0.0275,4.3047 -2.74157,4.3047 h -7.83306 v 6.6528 c -0.0503,1.6961 -1.56661,3.522 -3.13322,3.522 -1.69838,0 -3.17895,-1.8255 -3.13322,-3.522 v -10.1748 c 0.0212,-0.8157 0.39165,-1.5654 1.17496,-2.3481 z"
         sodipodi:nodetypes="scccccccsccs" /></g></g></svg>
