<?xml version="1.0" encoding="UTF-8" standalone="no"?><!DOCTYPE svg PUBLIC "-//W3C//DTD SVG 1.1//EN" "http://www.w3.org/Graphics/SVG/1.1/DTD/svg11.dtd"><svg width="100%" height="100%" viewBox="0 0 512 512" version="1.1" xmlns="http://www.w3.org/2000/svg" xmlns:xlink="http://www.w3.org/1999/xlink" xml:space="preserve" xmlns:serif="http://www.serif.com/" style="fill-rule:evenodd;clip-rule:evenodd;stroke-linejoin:round;stroke-miterlimit:2;"><circle cx="256" cy="256" r="253.182" style="fill:#cba6f7;"/><g id="Layer3"><path id="path1131" d="M94.322,210.873c32.412,-32.46 65.039,-64.977 97.572,-97.339l30.554,-30.48l-0,-0.171l148.385,-0l0,0.177l0.005,-0.005l120.683,120.395l-0.017,0.016l0,0.35l0,4.385l0.017,0l-0,30.668l-0.016,0l0.015,10.445l0.108,-0l-0.107,0.108l-0,0.032l-2.897,2.897l-27.457,27.759l0,-0.303l-0.015,0.016l0,-40.954l-158.947,0l-0,-0.107l-68.628,-0l0.09,-0.091l-0.049,0l72.068,-72.071l-0,0.053l0.229,-0.229l-0,41.673l85.266,0.104l61.03,0l-94.416,-94.19l-122.306,-0l-112.359,112.09l-58.951,58.95l46.837,47.036l66.339,66.338l121.546,0l62.86,-62.612l-30.913,-0.066l-146.356,0l0,-0.12l-48.294,0l26.989,-27.063l3.341,-3.372l52.35,0.046l168.649,0l-0,0.084l48.225,0l-0.108,0.108l0.213,0.001l-8.511,8.486l-21.831,21.83l-0.063,0l-93.431,93.16l-0.01,0.01l0,0.2l-147.063,0l0,-0.135l-0.136,0.135l-122.187,-122.702l-0.269,0.268l-21.984,-22.037l73.95,-73.773Z"/></g></svg>